<?xml version="1.0" standalone="no"?>
<!DOCTYPE svg PUBLIC "-//W3C//DTD SVG 20010904//EN"
 "http://www.w3.org/TR/2001/REC-SVG-20010904/DTD/svg10.dtd">
<svg version="1.0" xmlns="http://www.w3.org/2000/svg"
 width="5400.000000pt" height="1400.000000pt" viewBox="0 0 5400.000000 1400.000000"
 preserveAspectRatio="xMidYMid meet">
<metadata>
Created by potrace 1.16, written by Peter Selinger 2001-2019
</metadata>
<g transform="translate(0.000000,1400.000000) scale(0.100000,-0.100000)"
fill="#ffffff" stroke="none">
<path d="M7610 13985 c-19 -7 -100 -18 -180 -24 -298 -23 -753 -101 -1047
-181 -268 -73 -323 -89 -508 -154 -27 -10 -63 -21 -80 -25 -16 -4 -44 -15 -62
-24 -18 -10 -39 -17 -47 -17 -9 0 -35 -9 -58 -19 -24 -10 -65 -28 -93 -39
-108 -43 -254 -106 -330 -142 -44 -21 -91 -43 -105 -49 -14 -6 -32 -15 -40
-20 -8 -5 -44 -23 -80 -40 -60 -29 -76 -37 -120 -63 -8 -4 -33 -17 -55 -28
-22 -11 -58 -31 -80 -44 -22 -14 -53 -32 -70 -40 -16 -9 -48 -27 -70 -41 -22
-14 -47 -28 -55 -32 -8 -4 -40 -24 -70 -45 -30 -21 -60 -38 -66 -38 -6 0 -19
-9 -29 -20 -10 -11 -22 -20 -26 -20 -5 0 -28 -14 -51 -30 -24 -17 -72 -50
-108 -75 -100 -68 -150 -104 -257 -184 -104 -80 -305 -240 -313 -252 -3 -4
-22 -21 -43 -37 -21 -17 -76 -66 -123 -109 -48 -43 -93 -82 -101 -86 -8 -5
-35 -4 -61 2 -252 56 -608 115 -842 137 -280 27 -467 36 -635 30 -169 -6 -430
-36 -509 -57 -23 -6 -66 -17 -96 -24 -30 -7 -71 -18 -90 -25 -59 -21 -134 -52
-155 -63 -11 -6 -36 -19 -55 -29 -113 -59 -252 -182 -307 -273 -32 -52 -75
-149 -104 -235 -29 -85 -33 -106 -32 -205 0 -71 6 -129 17 -165 9 -30 27 -95
40 -145 36 -135 71 -227 150 -395 24 -52 128 -239 161 -290 100 -156 142 -219
159 -241 12 -14 28 -36 36 -49 8 -12 35 -48 60 -80 25 -32 52 -68 60 -80 15
-23 110 -141 120 -150 3 -3 28 -32 56 -65 27 -33 63 -76 80 -95 17 -19 55 -62
84 -95 211 -238 673 -692 940 -925 52 -46 97 -86 100 -89 3 -4 55 -49 115
-100 61 -52 124 -106 140 -120 24 -21 186 -154 320 -263 145 -118 371 -293
540 -419 116 -87 235 -176 265 -199 56 -42 209 -152 250 -180 13 -8 35 -24 49
-35 35 -27 84 -61 157 -110 34 -23 73 -50 86 -61 14 -10 34 -25 44 -31 26 -17
94 -64 178 -121 38 -26 76 -52 85 -57 9 -6 36 -24 60 -40 24 -17 51 -35 60
-40 9 -6 36 -24 60 -40 24 -17 51 -34 60 -40 27 -17 133 -86 194 -126 32 -22
61 -39 66 -39 4 0 16 -9 26 -20 10 -11 22 -20 27 -20 5 0 21 -8 36 -19 60 -41
159 -104 218 -139 22 -12 53 -31 69 -42 17 -11 46 -29 65 -40 19 -11 49 -29
65 -40 17 -11 46 -29 65 -40 19 -11 47 -28 62 -38 14 -9 55 -34 90 -55 34 -20
81 -48 103 -62 22 -13 73 -43 114 -67 40 -24 90 -53 110 -65 20 -12 50 -29 66
-37 17 -9 44 -25 60 -36 17 -11 44 -27 60 -36 17 -8 48 -26 70 -40 22 -13 54
-31 70 -40 17 -8 48 -26 70 -40 22 -13 54 -31 70 -40 17 -8 53 -28 80 -44 28
-16 64 -36 80 -44 17 -9 62 -34 100 -56 39 -22 88 -49 110 -60 22 -11 72 -38
110 -60 39 -21 102 -55 140 -75 39 -20 111 -58 160 -85 50 -26 152 -79 227
-116 84 -42 137 -75 138 -84 0 -9 -41 -35 -108 -68 l-109 -54 -35 19 c-101 52
-191 99 -263 139 -44 24 -98 52 -120 64 -22 11 -48 24 -57 30 -10 5 -26 15
-35 20 -10 6 -36 19 -58 30 -22 11 -71 38 -110 60 -38 23 -83 48 -100 56 -16
8 -52 28 -80 44 -27 17 -63 37 -80 45 -16 8 -48 26 -70 39 -22 14 -53 32 -70
40 -16 9 -48 27 -70 41 -22 13 -52 29 -67 35 -14 6 -29 18 -32 26 -3 8 -16 14
-30 14 -20 0 -27 -8 -39 -42 -8 -24 -22 -65 -32 -93 -9 -27 -21 -63 -25 -80
-4 -16 -23 -84 -42 -150 -43 -148 -65 -240 -78 -326 -10 -65 -37 -155 -65
-216 -39 -86 -86 -195 -95 -223 -5 -14 -23 -61 -40 -105 -17 -44 -42 -114 -56
-155 -30 -86 -43 -103 -87 -120 -18 -7 -62 -25 -99 -42 -37 -16 -72 -26 -78
-23 -13 8 -4 43 17 67 18 20 63 115 63 131 0 7 9 34 20 62 10 27 31 82 45 120
15 39 33 84 41 102 8 17 14 34 14 38 0 4 6 21 14 38 8 18 29 66 46 107 17 41
38 89 45 105 18 40 32 94 56 217 35 178 35 161 -6 192 -38 29 -135 57 -261 74
-39 6 -85 17 -102 26 -17 9 -36 16 -41 16 -9 0 -127 84 -141 100 -3 3 -34 30
-69 59 -116 96 -205 149 -366 221 -22 10 -61 27 -88 39 -26 11 -54 21 -62 21
-8 0 -32 9 -52 20 -21 11 -44 20 -52 20 -7 0 -32 8 -55 19 -23 10 -66 29 -96
41 -92 38 -179 80 -185 90 -10 16 -69 11 -95 -7 -60 -43 -166 -94 -209 -102
-33 -6 -36 -10 -62 -84 -19 -54 -40 -92 -68 -122 -23 -25 -41 -47 -41 -50 0
-3 9 -24 21 -46 29 -57 59 -244 59 -367 0 -112 -34 -478 -51 -555 -37 -162 5
-288 163 -484 98 -121 379 -387 446 -422 17 -9 22 -19 20 -39 -2 -22 -9 -28
-33 -30 -16 -2 -52 -11 -80 -21 -47 -17 -78 -27 -260 -81 -38 -11 -100 -29
-137 -40 -38 -11 -98 -29 -135 -39 -38 -11 -100 -29 -139 -40 -39 -12 -77 -21
-86 -21 -8 0 -44 -8 -79 -19 -35 -10 -104 -28 -154 -39 -309 -71 -399 -90
-575 -121 -63 -11 -153 -27 -200 -35 -48 -9 -118 -18 -156 -22 l-71 -7 -30 44
c-79 116 -173 260 -198 301 -99 164 -195 337 -280 505 -69 136 -219 469 -260
578 -14 39 -32 86 -39 105 -8 19 -22 60 -33 90 -11 30 -25 71 -32 90 -7 19
-33 100 -57 180 -25 80 -49 149 -53 153 -11 11 -39 -2 -46 -21 -3 -10 -18 -31
-33 -47 -54 -57 -55 -66 -26 -157 14 -46 34 -106 45 -133 10 -28 19 -55 19
-60 0 -5 9 -32 20 -60 10 -27 31 -81 45 -120 37 -99 55 -146 70 -180 8 -16 28
-64 45 -105 60 -142 207 -445 282 -580 23 -41 50 -91 60 -110 10 -19 27 -48
38 -65 11 -16 26 -41 33 -55 14 -28 33 -59 89 -143 21 -32 38 -61 39 -65 0 -4
16 -27 34 -52 54 -71 68 -99 55 -114 -8 -10 -74 -15 -263 -20 -339 -10 -581 8
-767 54 -99 25 -128 34 -166 51 -23 11 -46 19 -52 19 -29 0 -192 103 -248 156
-86 82 -141 180 -168 301 -36 162 -11 336 89 613 20 53 125 268 160 325 14 22
34 56 45 75 26 45 32 54 109 169 94 140 111 163 272 365 80 101 149 191 152
201 4 9 3 33 -3 54 -76 286 -151 790 -172 1156 -11 207 -4 894 11 1030 5 44
17 145 25 225 9 80 19 152 21 160 3 8 14 71 25 140 26 163 46 271 64 345 9 33
29 116 46 185 17 69 39 154 49 190 11 36 29 99 41 139 11 41 19 84 16 95 -8
30 -103 127 -118 121 -11 -5 -42 -100 -113 -345 -7 -25 -25 -94 -39 -155 -15
-60 -34 -137 -42 -170 -24 -99 -68 -336 -92 -505 -86 -585 -97 -1247 -31
-1820 11 -96 25 -204 30 -240 32 -210 78 -448 97 -508 11 -32 8 -36 -126 -206
-75 -96 -155 -200 -177 -231 -22 -31 -50 -69 -63 -84 -12 -16 -22 -31 -22 -35
0 -5 -19 -34 -100 -156 -9 -14 -20 -32 -24 -40 -4 -8 -18 -33 -31 -55 -33 -55
-161 -314 -170 -345 -4 -14 -11 -29 -14 -35 -8 -10 -41 -116 -85 -265 -34
-116 -49 -232 -41 -305 6 -59 57 -223 92 -300 68 -150 213 -288 393 -376 112
-54 147 -69 160 -69 7 0 38 -9 69 -19 93 -31 194 -50 385 -72 431 -50 1098 8
1746 151 47 11 108 24 135 30 28 6 86 20 130 30 44 10 109 26 145 34 36 8 85
22 109 31 24 8 51 15 60 15 9 0 45 8 81 19 36 11 99 29 140 41 217 61 431 125
535 160 108 37 152 51 195 64 25 8 61 19 80 26 19 7 58 20 85 30 28 9 66 22
85 30 19 7 55 18 80 25 25 7 61 19 80 28 19 8 51 20 70 27 19 6 64 23 100 37
36 13 79 28 95 32 17 4 39 13 50 19 11 7 38 18 60 26 107 37 130 46 255 96 28
11 73 29 100 40 28 11 73 29 100 40 28 11 74 29 103 41 28 11 69 29 89 40 20
10 44 19 53 19 9 0 33 9 53 19 20 11 62 29 92 41 55 22 96 40 180 77 25 11 90
39 145 63 92 38 164 70 208 91 49 25 45 23 195 90 87 39 138 62 155 70 9 5 25
13 35 18 9 4 37 17 62 28 85 39 296 141 500 242 l204 101 28 -20 c15 -11 32
-20 39 -20 6 0 22 -9 36 -20 14 -11 33 -20 42 -20 9 0 27 -9 41 -20 14 -11 32
-20 40 -20 8 0 26 -9 40 -20 14 -11 30 -20 37 -20 6 0 47 -18 90 -39 43 -22
119 -58 168 -81 50 -23 98 -46 108 -51 29 -15 50 -25 102 -49 28 -13 58 -27
68 -31 9 -5 25 -13 35 -18 25 -12 111 -51 160 -72 23 -11 63 -29 90 -40 26
-12 65 -30 87 -39 22 -9 61 -27 88 -39 26 -11 67 -30 92 -41 25 -11 64 -29 88
-39 23 -10 67 -29 97 -41 30 -12 73 -30 95 -40 40 -18 105 -45 200 -82 28 -11
67 -28 87 -39 20 -10 43 -19 50 -19 7 0 30 -9 51 -20 20 -11 45 -20 54 -20 10
0 32 -9 48 -20 17 -11 38 -20 48 -20 10 0 35 -9 55 -19 20 -10 53 -24 72 -31
81 -28 117 -41 145 -54 17 -7 45 -19 63 -25 82 -28 100 -35 138 -52 23 -11 47
-19 54 -19 6 0 26 -7 43 -14 33 -15 130 -50 182 -66 17 -5 68 -23 115 -40 47
-17 105 -37 130 -44 25 -8 61 -19 80 -26 91 -32 141 -49 210 -70 41 -12 100
-31 130 -40 163 -51 309 -95 405 -121 44 -11 103 -28 130 -36 28 -9 75 -21
105 -29 30 -7 82 -19 115 -27 33 -8 87 -22 120 -30 204 -53 536 -122 750 -156
277 -44 337 -52 560 -71 597 -51 1067 2 1380 157 230 114 363 263 438 492 19
58 22 88 22 246 0 187 -3 209 -57 385 -32 103 -107 287 -149 363 -5 10 -24 44
-40 75 -52 97 -66 120 -175 287 -32 50 -67 102 -78 116 -12 14 -28 36 -36 49
-8 12 -35 48 -60 80 -25 32 -54 70 -65 86 -11 15 -24 32 -30 38 -5 6 -22 27
-36 46 -15 19 -39 49 -54 65 -57 64 -58 68 -41 132 9 32 23 94 31 138 8 44 19
103 24 130 37 197 79 536 93 744 15 213 14 798 0 1009 -28 403 -106 878 -207
1257 -42 159 -52 196 -75 270 -12 39 -27 90 -34 115 -19 65 -40 63 -103 -9
-50 -56 -65 -93 -44 -106 5 -3 12 -20 16 -38 4 -17 15 -59 25 -92 73 -241 165
-656 185 -835 4 -30 11 -71 15 -90 5 -19 16 -105 25 -190 9 -85 21 -202 27
-260 14 -136 14 -922 0 -1060 -6 -58 -18 -175 -27 -260 -9 -85 -20 -171 -25
-190 -4 -19 -11 -60 -15 -90 -10 -94 -42 -259 -96 -497 -17 -78 -26 -61 151
-273 21 -25 81 -103 134 -175 53 -71 99 -134 103 -140 5 -5 20 -28 34 -50 14
-22 44 -68 67 -103 23 -34 42 -64 42 -66 0 -2 17 -33 38 -67 133 -222 226
-469 257 -681 16 -110 16 -123 0 -219 -24 -148 -67 -233 -165 -330 -79 -79
-85 -83 -192 -135 -189 -93 -371 -137 -644 -155 -147 -10 -615 -4 -656 7 -26
8 -22 36 10 77 15 20 43 61 62 92 19 31 43 68 52 83 10 15 27 43 38 62 11 19
28 47 38 62 91 140 278 502 377 730 37 84 75 171 85 193 10 22 21 51 25 65 4
14 11 30 15 35 4 6 14 30 23 55 9 25 37 104 62 175 26 72 51 146 55 165 5 19
16 52 25 72 25 61 19 83 -37 153 -28 36 -55 65 -59 65 -15 0 -32 -33 -49 -97
-30 -112 -52 -181 -101 -318 -34 -93 -70 -190 -85 -222 -8 -17 -14 -34 -14
-38 0 -4 -6 -21 -14 -38 -8 -18 -37 -84 -65 -147 -27 -63 -56 -128 -63 -144
-20 -46 -183 -366 -209 -412 -25 -44 -147 -254 -164 -282 -48 -81 -219 -337
-230 -345 -26 -20 -436 46 -820 133 -44 10 -108 24 -142 30 -94 19 -97 29 -27
103 170 180 219 243 258 332 30 66 62 174 82 271 75 366 98 435 199 589 74
113 199 263 380 455 51 55 192 228 231 285 66 97 175 356 190 450 8 55 3 55
-80 16 -36 -18 -86 -32 -124 -36 -58 -6 -64 -4 -86 20 -19 20 -26 42 -31 93
-13 139 -68 280 -147 380 -46 58 -50 66 -45 103 12 91 -15 184 -74 254 -15 17
-17 42 -16 160 1 120 -2 151 -22 220 -31 105 -109 344 -121 370 -5 11 -21 56
-36 100 -14 44 -32 94 -39 110 -8 17 -28 64 -45 105 -36 84 -47 100 -66 100
-7 0 -71 -46 -142 -102 -71 -57 -168 -132 -216 -168 -48 -36 -123 -92 -167
-125 -97 -73 -194 -145 -319 -236 -52 -38 -99 -72 -105 -77 -5 -4 -35 -24 -65
-45 -30 -20 -86 -60 -125 -87 -38 -28 -101 -72 -140 -98 -38 -25 -72 -49 -75
-52 -5 -6 -107 -76 -139 -95 -9 -6 -36 -24 -60 -40 -24 -17 -51 -35 -60 -40
-9 -6 -36 -24 -60 -40 -24 -17 -51 -34 -60 -40 -9 -5 -68 -44 -131 -86 -192
-127 -234 -154 -245 -159 -6 -3 -36 -22 -68 -42 -31 -21 -83 -54 -114 -74 -87
-55 -125 -79 -158 -100 -54 -34 -62 -39 -101 -62 -22 -12 -52 -31 -69 -42 -16
-11 -46 -29 -65 -40 -19 -11 -52 -31 -72 -43 -20 -12 -66 -40 -103 -62 -37
-22 -83 -50 -103 -62 -21 -12 -44 -25 -52 -30 -8 -4 -35 -20 -58 -36 -50 -34
-51 -18 8 -197 55 -165 57 -170 76 -177 9 -3 66 6 128 21 117 28 230 53 386
86 52 11 139 29 192 41 132 29 218 12 423 -81 97 -44 147 -60 190 -60 40 0 52
-5 76 -31 16 -17 29 -37 29 -44 0 -25 -39 -241 -56 -310 -12 -49 -18 -112 -18
-210 0 -139 0 -140 37 -230 46 -108 77 -246 77 -335 0 -160 -55 -409 -106
-477 l-20 -27 -59 19 c-32 10 -70 24 -84 31 -14 8 -34 14 -44 14 -11 0 -33 7
-50 14 -38 18 -139 54 -182 65 -16 4 -44 15 -62 24 -18 10 -39 17 -47 17 -9 0
-35 8 -58 19 -24 10 -58 24 -75 30 -18 6 -48 16 -65 22 -18 6 -46 18 -63 25
-28 12 -53 22 -160 60 -22 8 -52 21 -67 29 -14 8 -34 15 -43 15 -43 0 -80 38
-104 107 -40 118 -82 227 -123 320 -10 23 -18 45 -18 48 0 7 -45 108 -61 138
-15 28 -59 168 -59 189 0 41 -54 266 -100 418 -93 303 -105 326 -153 283 -12
-11 -33 -25 -47 -31 -14 -7 -43 -23 -65 -37 -22 -13 -47 -27 -55 -31 -8 -4
-53 -29 -100 -56 -47 -27 -93 -53 -102 -59 -10 -5 -26 -14 -35 -19 -10 -6 -31
-17 -48 -26 -16 -9 -52 -28 -80 -44 -27 -15 -77 -42 -110 -60 -33 -18 -82 -45
-110 -60 -27 -15 -81 -44 -120 -65 -38 -20 -119 -63 -180 -95 -60 -33 -129
-69 -153 -80 l-43 -21 -106 53 c-59 29 -109 59 -111 65 -2 7 26 27 65 46 37
19 120 62 183 95 63 34 151 79 195 102 44 23 116 61 160 85 44 24 94 50 110
59 17 8 62 33 100 56 39 22 88 49 110 60 22 11 47 24 55 29 8 6 65 37 125 71
61 34 117 65 125 71 8 5 29 16 45 25 17 8 46 25 67 37 20 12 62 37 95 55 32
18 65 37 73 42 8 5 31 19 50 30 19 12 53 32 75 45 22 13 49 29 60 35 11 6 36
21 56 33 20 12 70 41 110 65 41 24 88 52 104 62 17 11 46 29 65 40 19 11 49
29 65 40 17 11 44 27 62 35 17 8 35 20 38 25 4 6 17 16 28 21 12 5 42 23 67
39 25 16 54 34 65 40 11 6 40 24 65 40 25 16 54 34 65 39 12 5 27 16 34 25 7
9 17 16 22 16 4 0 25 11 46 25 21 14 45 30 53 35 8 5 32 21 53 35 21 14 41 25
46 25 4 0 16 9 26 20 10 11 22 20 26 20 6 0 185 115 289 187 19 13 91 62 160
108 190 129 346 237 465 322 33 24 71 51 85 60 103 72 517 377 606 447 28 23
64 50 78 60 15 11 35 27 45 35 10 9 33 27 52 41 53 40 371 295 399 320 14 12
41 34 60 49 19 14 42 33 50 41 9 8 68 59 132 113 64 54 127 108 141 120 13 12
53 47 87 77 35 30 68 60 74 65 6 6 61 56 121 110 279 253 668 645 865 874 30
35 66 76 79 90 52 58 222 272 297 376 43 61 94 131 112 155 18 25 41 61 52 80
11 19 29 49 40 65 43 66 137 232 157 275 8 19 31 66 49 104 19 37 34 73 34 80
0 6 6 22 13 36 14 27 55 157 83 260 12 44 19 116 22 227 4 153 3 166 -23 255
-15 51 -34 102 -41 113 -8 11 -14 25 -14 32 0 40 -163 226 -245 280 -89 58
-98 63 -215 116 -106 48 -300 96 -505 124 -176 24 -584 24 -820 0 -286 -29
-562 -71 -825 -124 -181 -37 -172 -37 -200 -11 -70 66 -225 201 -300 263 -47
38 -90 74 -96 80 -6 5 -26 21 -44 35 -18 14 -65 50 -104 80 -100 78 -290 212
-359 254 -18 11 -52 35 -76 53 -24 18 -48 33 -54 33 -6 0 -19 7 -29 17 -10 9
-26 21 -37 27 -52 30 -100 59 -136 81 -22 13 -53 31 -70 39 -16 8 -61 33 -100
56 -38 22 -88 49 -110 60 -22 11 -47 24 -55 29 -8 5 -26 14 -40 20 -14 6 -32
15 -40 20 -18 10 -177 85 -235 111 -77 34 -140 63 -177 81 -20 11 -45 19 -55
19 -10 0 -31 9 -48 20 -16 11 -39 20 -50 20 -11 0 -29 6 -40 14 -11 7 -36 19
-55 24 -61 19 -154 53 -187 68 -17 7 -39 14 -48 14 -9 0 -37 8 -63 19 -26 10
-81 28 -122 40 -41 13 -102 31 -135 42 -33 10 -67 19 -76 19 -9 0 -45 8 -80
19 -256 74 -738 159 -1034 181 -77 6 -163 17 -192 25 -70 20 -998 20 -1053 0z
m1005 -170 c344 -27 662 -70 890 -120 207 -45 266 -59 324 -76 35 -11 71 -19
80 -19 9 0 43 -9 76 -19 33 -11 94 -29 135 -41 41 -12 98 -31 125 -41 28 -11
56 -19 64 -19 7 0 27 -7 44 -14 39 -18 140 -54 183 -65 18 -5 42 -16 55 -25
13 -9 33 -16 44 -16 11 0 34 -9 50 -20 17 -11 38 -20 48 -20 10 0 35 -8 55
-19 20 -10 58 -28 85 -40 26 -11 66 -30 90 -40 61 -28 388 -191 444 -222 27
-15 66 -36 88 -48 22 -11 56 -31 75 -43 19 -12 46 -29 60 -36 14 -8 34 -20 45
-26 26 -15 62 -38 165 -105 47 -31 92 -60 101 -66 21 -13 81 -55 144 -100 28
-19 66 -46 85 -59 19 -13 64 -47 100 -75 36 -28 70 -54 75 -59 108 -84 397
-330 425 -361 3 -3 31 -30 63 -60 l58 -53 52 6 c29 4 86 15 127 25 41 10 131
28 200 40 69 13 161 29 205 37 44 8 136 21 205 29 69 9 157 20 195 25 113 17
673 24 815 11 451 -40 759 -195 876 -440 116 -245 52 -607 -182 -1025 -64
-116 -170 -281 -253 -396 -22 -30 -52 -73 -68 -95 -46 -66 -181 -233 -278
-343 -49 -57 -94 -112 -100 -123 -22 -43 -67 -32 -79 19 -25 105 -329 716
-448 900 -10 15 -28 44 -40 66 -30 50 -36 60 -82 131 -21 33 -51 78 -65 100
-14 22 -28 42 -31 45 -3 3 -22 30 -43 60 -55 83 -97 142 -121 171 -11 14 -28
36 -36 49 -20 30 -220 279 -284 354 -124 145 -180 198 -201 192 -11 -3 -47
-12 -80 -19 -71 -16 -80 -34 -36 -73 41 -36 39 -50 -6 -58 -57 -10 -272 -75
-318 -95 -22 -11 -61 -28 -86 -40 -25 -12 -56 -21 -68 -21 -12 0 -41 -10 -64
-22 -23 -12 -50 -25 -59 -30 -10 -4 -26 -12 -35 -17 -20 -9 -90 -41 -158 -71
-25 -11 -65 -29 -90 -40 -25 -11 -65 -29 -90 -40 -110 -49 -133 -59 -176 -79
-25 -12 -55 -21 -65 -21 -10 0 -57 -9 -104 -21 -47 -11 -123 -29 -170 -40
-144 -34 -237 -61 -445 -129 -151 -49 -161 -52 -307 -111 -138 -55 -340 -151
-473 -224 -33 -18 -73 -34 -89 -34 -36 -1 -155 -36 -212 -62 -23 -11 -48 -19
-56 -19 -9 0 -27 -9 -41 -20 -32 -25 -58 -25 -107 0 -25 13 -69 22 -127 26
-79 5 -130 20 -195 55 -40 21 -176 29 -427 27 -238 -3 -272 -1 -321 16 -30 10
-64 23 -75 29 -11 6 -33 17 -50 25 -37 18 -143 101 -170 134 -75 86 -94 133
-84 197 4 25 12 80 18 121 28 208 31 218 67 239 44 26 73 85 84 174 20 153 11
211 -35 219 -19 3 -20 10 -17 135 6 193 -20 267 -129 373 -62 60 -114 89 -214
121 -59 18 -180 11 -257 -16 -39 -14 -79 -32 -88 -40 -9 -8 -21 -15 -27 -15
-6 0 -40 -31 -76 -70 -95 -102 -112 -154 -112 -339 0 -140 -1 -144 -23 -152
-37 -14 -44 -50 -32 -168 13 -131 42 -199 95 -224 27 -13 35 -23 35 -44 0 -16
9 -77 19 -138 11 -60 22 -141 26 -180 6 -67 5 -72 -25 -116 -79 -119 -208
-215 -350 -261 -60 -20 -89 -21 -380 -22 l-315 -1 -85 -37 c-67 -29 -103 -37
-169 -42 -56 -4 -97 -12 -123 -26 -48 -25 -69 -25 -116 -1 -81 42 -257 101
-299 101 -12 0 -114 45 -225 101 -265 132 -280 139 -298 139 -8 0 -28 9 -45
20 -16 11 -38 20 -48 20 -9 0 -34 9 -54 20 -21 11 -45 20 -53 20 -8 1 -33 9
-55 20 -22 11 -47 19 -55 20 -8 0 -37 8 -65 19 -130 49 -415 124 -650 171 -53
11 -153 49 -295 113 -25 11 -64 28 -87 38 -88 39 -153 69 -190 88 -77 40 -196
91 -213 91 -11 0 -52 16 -92 36 -40 19 -95 42 -123 49 -229 64 -290 84 -287
97 2 7 18 25 35 39 38 32 32 59 -13 59 -17 0 -47 7 -67 15 -19 8 -42 15 -50
15 -23 0 -153 -142 -323 -353 -8 -10 -23 -28 -34 -40 -19 -23 -230 -304 -259
-347 -61 -90 -153 -226 -157 -235 -3 -6 -21 -35 -41 -65 -61 -94 -74 -114 -86
-140 -7 -14 -22 -38 -33 -55 -18 -28 -30 -49 -80 -142 -11 -21 -25 -47 -32
-58 -44 -78 -194 -387 -242 -500 -69 -161 -79 -180 -97 -180 -9 0 -34 21 -55
46 -22 26 -73 87 -114 136 -136 161 -270 332 -325 414 -16 24 -32 46 -35 49
-3 3 -17 23 -31 45 -14 22 -44 68 -67 103 -23 34 -42 65 -42 67 0 2 -11 20
-23 39 -33 48 -161 307 -190 386 -92 243 -117 435 -78 597 32 131 75 207 167
293 75 70 110 92 269 166 78 36 323 91 470 104 221 20 723 9 905 -20 36 -6
117 -17 180 -26 185 -24 412 -63 545 -94 44 -11 101 -22 128 -26 l48 -6 82 73
c45 41 87 79 92 85 25 26 189 168 285 245 197 160 450 341 655 469 109 68 211
130 240 145 17 8 48 26 70 39 22 13 85 47 140 75 55 28 114 59 130 68 17 9 38
20 47 25 10 4 26 12 35 17 10 5 59 28 108 50 50 23 108 51 130 62 22 10 44 19
49 19 5 0 27 8 50 19 23 10 66 29 96 41 30 12 74 31 98 41 23 10 49 19 58 19
8 0 29 7 47 17 18 9 46 20 62 24 17 4 77 24 135 43 220 75 419 131 625 176 55
12 136 31 180 41 45 11 92 19 105 19 14 0 57 7 95 15 39 8 108 20 155 25 47 6
114 15 150 21 265 44 962 62 1315 34z m-5513 -2260 c6 -14 14 -25 18 -25 4 0
38 -20 76 -45 38 -24 77 -45 87 -45 10 0 35 -18 56 -40 24 -25 47 -40 62 -40
14 0 33 -6 44 -14 11 -7 31 -17 45 -21 78 -23 160 -79 160 -110 0 -9 -36 -5
-46 5 -17 17 -112 30 -139 20 -41 -15 -34 -61 13 -94 21 -14 42 -26 47 -26 15
0 112 -39 203 -82 l83 -39 137 3 c124 3 141 1 177 -19 22 -11 79 -40 128 -64
48 -24 95 -51 104 -61 9 -10 21 -18 26 -18 6 0 19 -7 29 -17 10 -9 26 -21 37
-27 10 -6 38 -24 62 -41 24 -16 51 -34 60 -40 9 -5 27 -17 40 -26 76 -52 200
-129 208 -129 5 0 14 -7 21 -16 8 -8 27 -22 44 -30 17 -8 49 -25 71 -38 34
-20 119 -66 190 -103 11 -5 31 -16 45 -23 14 -7 32 -16 40 -20 8 -4 34 -16 57
-28 23 -12 48 -22 55 -22 7 0 30 -9 51 -20 20 -11 42 -20 49 -20 7 0 35 -9 63
-19 72 -28 196 -61 226 -61 24 0 39 -15 39 -41 0 -25 -71 -31 -390 -34 -184
-2 -373 -8 -420 -14 -47 -6 -141 -17 -210 -25 -162 -20 -388 -61 -560 -103
-36 -8 -78 -17 -95 -20 -16 -3 -57 -13 -90 -23 -50 -16 -127 -22 -445 -35
-212 -8 -419 -18 -460 -22 -41 -4 -98 -6 -125 -4 -28 1 -89 -7 -137 -18 -47
-12 -101 -21 -119 -21 -19 0 -61 -9 -94 -19 -46 -14 -61 -24 -63 -40 -4 -25
39 -46 75 -36 13 3 44 -1 69 -10 38 -13 49 -13 77 -1 29 12 37 11 69 -5 32
-16 49 -17 181 -9 147 10 213 2 204 -24 -2 -6 -27 -14 -55 -18 -63 -9 -132
-50 -132 -78 0 -26 37 -49 80 -50 19 -1 109 2 200 6 185 7 228 19 312 85 38
30 58 38 110 43 106 12 278 8 388 -8 58 -9 143 -21 190 -26 47 -6 137 -18 200
-26 354 -45 814 -41 1055 11 69 15 133 23 150 20 94 -19 334 -45 417 -45 112
0 346 32 400 55 21 8 45 15 54 15 8 0 45 14 82 30 36 17 71 29 79 26 24 -10
81 -159 176 -466 73 -234 138 -421 161 -465 9 -16 16 -34 16 -38 0 -4 9 -21
20 -37 11 -17 29 -44 41 -61 21 -31 21 -31 4 -182 -23 -202 -23 -568 0 -731
17 -119 17 -120 -5 -170 -45 -103 -51 -120 -89 -234 -42 -126 -54 -166 -106
-367 -28 -108 -49 -160 -123 -305 -49 -96 -119 -245 -156 -330 -37 -85 -76
-173 -86 -195 -10 -22 -29 -67 -41 -100 -12 -33 -25 -67 -29 -75 -11 -23 -49
-24 -73 -3 -12 11 -33 25 -47 31 -23 11 -39 21 -122 72 -18 11 -46 27 -63 35
-16 9 -50 29 -75 45 -25 16 -54 34 -65 40 -11 6 -38 22 -60 35 -22 13 -56 34
-75 45 -19 11 -48 29 -65 40 -16 11 -47 30 -69 42 -40 24 -51 31 -101 62 -16
11 -55 35 -85 54 -167 105 -328 208 -422 269 -40 27 -80 52 -89 58 -9 5 -27
17 -40 26 -23 16 -93 62 -128 84 -9 6 -36 24 -60 40 -24 17 -51 35 -60 40 -29
19 -94 63 -206 140 -60 42 -139 96 -175 121 -36 24 -105 73 -155 109 -49 35
-112 80 -140 100 -59 41 -103 74 -246 180 -59 44 -117 87 -129 95 -22 15 -133
100 -157 120 -20 17 -16 46 18 123 38 87 135 283 195 392 24 44 53 98 64 120
11 22 38 72 60 110 23 39 48 84 56 100 8 17 28 53 44 80 17 28 36 64 45 80 78
155 202 319 351 464 53 51 93 98 91 105 -3 8 -33 15 -79 19 -90 7 -364 42
-437 56 -29 6 -102 11 -160 11 -103 0 -108 -1 -156 -33 -126 -82 -147 -88
-310 -98 -82 -5 -175 -13 -205 -18 -68 -12 -152 -3 -205 20 -41 19 -74 47
-126 111 -30 37 -97 66 -120 53 -20 -13 -221 16 -263 37 -180 90 -180 289 -1
373 85 40 329 85 462 85 45 0 94 5 109 10 15 6 202 15 418 20 281 8 405 14
441 25 243 69 727 159 929 174 54 4 91 11 93 18 5 14 -64 63 -88 63 -9 0 -22
7 -29 16 -8 8 -27 22 -44 30 -40 19 -75 41 -197 121 -39 26 -73 41 -82 38 -8
-4 -36 -33 -62 -66 -53 -67 -134 -136 -172 -145 -61 -16 -111 52 -138 187
l-17 85 27 79 28 79 -34 28 c-18 15 -40 28 -49 28 -9 0 -25 7 -37 15 -25 17
-37 18 -150 9 -89 -7 -168 6 -219 37 -17 11 -37 19 -43 19 -6 0 -24 8 -38 18
-15 9 -45 22 -68 29 -163 46 -252 117 -276 220 -6 26 -14 59 -17 72 -8 27 -87
89 -114 90 -19 1 -196 -214 -349 -424 -104 -143 -273 -396 -319 -477 -8 -15
-36 -63 -62 -107 -27 -44 -48 -84 -48 -89 0 -9 -12 -38 -66 -159 -8 -17 -14
-34 -14 -38 0 -4 -6 -21 -14 -38 -8 -18 -26 -61 -41 -97 -15 -36 -33 -78 -40
-95 -15 -32 -55 -129 -87 -210 -11 -27 -26 -63 -33 -80 -27 -60 -63 -151 -71
-180 -15 -50 -41 -38 -136 61 -49 50 -88 96 -88 101 0 10 22 65 55 138 7 17
35 80 61 140 96 225 218 462 374 730 25 42 50 84 55 93 31 53 177 271 234 352
17 25 42 61 55 80 13 19 56 76 95 125 39 50 74 95 79 100 35 47 191 235 210
255 14 14 36 40 49 58 30 38 49 41 65 7z m10126 6 c9 -10 33 -38 52 -62 19
-23 42 -51 52 -60 13 -14 220 -269 246 -304 128 -171 288 -403 342 -495 11
-19 29 -48 40 -65 10 -16 38 -63 62 -104 24 -40 53 -90 64 -110 12 -20 31 -52
41 -71 26 -47 195 -380 211 -416 42 -94 105 -240 136 -312 l35 -83 -65 -74
c-36 -41 -73 -79 -82 -84 -23 -12 -42 -3 -42 20 0 10 -9 38 -19 61 -10 24 -29
68 -41 98 -52 129 -92 217 -190 420 -49 102 -59 120 -80 158 -6 9 -19 35 -30
57 -11 22 -24 47 -30 55 -5 8 -33 57 -62 108 -29 51 -61 105 -70 120 -10 15
-27 43 -38 62 -26 45 -32 55 -109 169 -109 163 -124 184 -234 328 -34 45 -71
94 -82 109 -11 15 -24 32 -30 38 -5 6 -43 50 -83 99 -40 48 -77 87 -83 87 -15
0 -60 -30 -96 -64 -26 -24 -33 -38 -33 -68 0 -110 -100 -200 -280 -253 -25 -7
-74 -29 -110 -47 -90 -47 -169 -62 -282 -54 -71 5 -99 4 -122 -7 -17 -8 -58
-28 -91 -43 -53 -25 -111 -59 -125 -74 -5 -6 -261 -175 -340 -226 -73 -46 -76
-48 -116 -72 -22 -12 -52 -31 -69 -42 -16 -10 -58 -33 -92 -50 -43 -21 -63
-37 -63 -49 0 -16 12 -19 88 -23 170 -11 588 -84 789 -138 40 -11 79 -20 87
-20 9 0 35 -7 58 -15 33 -11 140 -17 441 -24 231 -6 406 -15 417 -21 10 -5 58
-10 107 -11 48 0 111 -4 138 -9 28 -5 73 -12 100 -16 122 -14 220 -47 284 -94
34 -25 81 -112 81 -150 0 -11 -11 -43 -24 -72 -24 -55 -61 -89 -130 -121 -37
-16 -177 -35 -261 -35 -54 1 -100 -24 -129 -70 -33 -51 -63 -76 -116 -94 -66
-24 -117 -28 -190 -17 -36 5 -130 13 -210 18 -159 10 -190 19 -301 94 -55 36
-58 37 -155 37 -115 0 -384 -39 -384 -56 0 -13 120 -123 153 -141 24 -12 67
-66 67 -83 0 -23 52 -162 87 -233 45 -92 138 -233 159 -241 18 -7 34 0 34 16
0 5 -25 47 -55 93 -30 45 -55 86 -55 92 0 5 16 26 35 48 28 30 35 44 30 65 -7
34 27 80 60 80 40 0 124 -51 175 -107 43 -47 73 -99 115 -198 64 -152 115
-235 144 -235 6 0 22 18 36 40 15 24 36 42 52 46 23 6 33 0 78 -52 58 -65 52
-64 133 -12 32 20 36 20 67 5 31 -15 96 -86 108 -118 7 -22 3 -28 -98 -109
-49 -41 -92 -76 -95 -80 -3 -3 -77 -64 -165 -134 -88 -70 -169 -135 -180 -145
-11 -10 -35 -28 -52 -41 l-33 -24 -28 21 c-15 11 -39 24 -52 28 -14 4 -30 12
-37 17 -6 5 -48 18 -93 29 -105 25 -120 18 -121 -54 -1 -29 -1 -56 0 -61 9
-51 -75 -136 -136 -136 -40 0 -108 29 -353 150 -80 39 -163 82 -185 94 -22 12
-65 36 -95 52 -96 52 -129 78 -140 108 -5 16 -10 86 -10 156 0 116 -2 130 -23
161 l-23 34 -95 -1 c-51 0 -137 -8 -189 -18 -52 -9 -144 -26 -205 -37 -60 -10
-135 -24 -165 -29 -30 -6 -93 -17 -141 -24 -47 -8 -120 -21 -162 -30 -42 -9
-91 -16 -109 -16 -18 0 -43 -3 -56 -6 -24 -7 -180 -184 -227 -260 -47 -74 -45
-72 -127 -197 -43 -64 -113 -170 -155 -234 -84 -126 -83 -125 -128 -198 -16
-26 -40 -60 -52 -75 -13 -15 -23 -30 -23 -33 0 -2 -52 -83 -116 -178 -80 -121
-114 -180 -110 -194 3 -11 10 -42 16 -70 6 -27 54 -138 107 -245 52 -107 105
-217 118 -245 12 -27 31 -70 43 -95 50 -110 62 -139 62 -146 0 -4 8 -25 19
-48 53 -117 61 -138 61 -158 0 -24 -27 -58 -45 -58 -7 0 -20 -9 -30 -20 -25
-28 -72 -27 -80 3 -6 20 -27 71 -112 272 -24 56 -40 91 -127 278 -44 94 -90
187 -130 262 -18 33 -42 101 -55 150 -62 248 -141 495 -204 638 -20 47 -20 48
-4 205 22 197 22 424 1 660 -17 193 -18 191 26 257 11 17 25 41 31 55 6 14 17
36 24 50 20 39 73 190 125 360 47 153 152 463 175 514 14 31 29 56 35 56 5 0
40 -13 77 -29 100 -42 172 -61 312 -82 165 -24 286 -24 478 3 190 26 205 26
313 4 47 -9 114 -22 150 -28 85 -15 635 -15 760 0 52 6 156 18 230 27 74 8
162 19 195 25 158 28 298 37 426 29 122 -8 132 -10 167 -38 94 -74 122 -83
312 -93 96 -6 191 -10 210 -10 59 1 97 32 83 67 -8 22 -78 56 -131 64 -25 3
-47 11 -49 17 -8 25 55 33 199 24 117 -7 148 -6 172 6 35 17 60 18 88 3 15 -8
32 -7 69 5 27 9 59 14 72 11 33 -9 77 11 77 34 0 15 -15 24 -62 40 -34 12 -79
21 -100 21 -21 0 -74 9 -118 21 -45 11 -104 19 -137 18 -32 -1 -141 3 -243 9
-102 6 -306 16 -455 22 -204 8 -286 15 -335 29 -36 10 -110 28 -165 41 -55 12
-127 28 -160 36 -85 20 -290 53 -489 79 -172 23 -496 38 -686 32 -196 -6 -255
4 -255 42 0 22 6 26 60 37 93 19 238 64 322 100 169 72 446 213 475 242 6 6
16 12 22 12 5 0 26 11 45 24 20 13 63 40 96 61 68 43 375 246 390 258 42 32
119 73 224 118 50 22 66 24 188 21 121 -3 137 -1 167 17 18 12 40 21 47 21 8
0 25 9 39 20 14 11 34 20 45 20 11 0 38 9 60 20 22 11 48 19 57 20 25 0 88 59
88 80 0 32 -38 50 -89 43 -25 -3 -56 -12 -68 -19 -29 -18 -53 -18 -53 0 0 20
48 58 100 79 25 10 63 27 85 38 22 10 49 19 60 19 12 0 39 18 60 40 22 22 49
40 61 40 11 0 42 16 67 35 25 19 57 39 72 45 14 5 30 21 37 35 13 30 32 32 56
6z m-5074 -5268 c2 -10 7 -38 11 -63 13 -92 71 -350 114 -510 53 -197 61 -230
80 -295 11 -38 28 -95 37 -125 22 -74 26 -103 17 -115 -4 -6 -53 -33 -108 -60
-55 -27 -111 -57 -124 -67 -26 -19 -66 -24 -76 -9 -3 6 -57 35 -120 66 -64 32
-120 66 -126 77 -8 15 -7 29 4 57 17 42 46 144 115 401 74 279 132 533 132
585 0 54 32 97 44 58z"/>
<path d="M7785 13600 c-191 -8 -278 -17 -315 -31 -20 -8 -133 -142 -210 -250
-8 -11 -25 -32 -36 -45 -19 -21 -23 -42 -29 -144 -6 -107 -10 -124 -35 -162
-15 -24 -30 -62 -34 -85 -11 -76 -77 -153 -168 -196 -76 -36 -116 -91 -177
-243 -22 -54 -41 -247 -34 -339 18 -246 34 -355 55 -382 7 -9 28 -11 68 -6 50
5 60 3 79 -16 12 -12 21 -34 21 -50 0 -38 62 -96 88 -82 28 15 49 43 70 96 21
52 72 227 72 248 0 14 66 84 100 108 19 13 24 27 28 80 5 68 32 124 74 154 53
37 100 65 108 65 23 0 172 87 230 135 99 81 137 125 150 172 6 24 21 55 34 70
22 25 27 27 127 28 77 1 112 5 136 18 18 9 37 17 42 17 26 0 145 94 181 143
26 35 30 50 30 102 0 64 -31 181 -70 269 -22 48 -22 52 -7 100 23 73 23 115 3
168 -14 36 -26 49 -49 57 -33 12 -256 12 -532 1z"/>
<path d="M10435 12887 l-27 -22 11 -100 c6 -55 15 -192 21 -305 5 -113 15
-252 20 -310 6 -58 15 -184 20 -280 9 -156 13 -184 40 -260 17 -47 34 -94 37
-105 3 -11 14 -32 25 -47 10 -14 18 -30 18 -36 0 -5 15 -29 34 -54 63 -82 126
-85 166 -8 26 50 66 90 90 90 27 0 48 -23 150 -164 115 -160 133 -178 167
-170 95 22 105 44 65 136 -37 85 -40 118 -12 143 11 10 20 24 20 31 0 17 -72
155 -116 221 -19 29 -55 93 -81 143 -44 87 -46 96 -51 193 -4 95 -7 106 -38
152 -51 78 -87 162 -80 189 6 24 65 66 92 66 19 0 65 -33 127 -90 87 -80 123
-188 97 -295 -13 -53 -12 -55 16 -97 16 -24 33 -50 39 -59 74 -118 158 -218
211 -253 l45 -29 42 18 c23 10 51 27 63 37 29 26 67 22 130 -13 63 -36 82 -65
65 -98 -17 -31 -88 -64 -151 -71 -51 -5 -55 -7 -52 -30 2 -23 64 -89 118 -126
23 -16 104 -6 159 20 17 8 75 33 130 56 137 57 210 91 438 200 45 21 98 42
117 46 47 9 180 74 180 88 0 36 -445 424 -705 615 -55 41 -117 87 -137 102
-20 16 -40 29 -44 29 -4 0 -16 7 -26 17 -10 9 -27 21 -37 27 -40 23 -136 91
-146 103 -5 7 -22 17 -37 22 -38 14 -37 -5 2 -54 17 -21 30 -48 30 -61 0 -13
11 -34 25 -46 26 -22 34 -71 15 -83 -23 -14 -6 -44 60 -110 39 -38 70 -77 70
-86 0 -9 -8 -27 -19 -40 -10 -13 -22 -37 -28 -54 -14 -43 -40 -42 -103 4 -30
22 -68 50 -85 61 -28 20 -196 141 -313 226 -29 22 -62 46 -73 54 -66 48 -80
63 -77 88 5 39 32 51 69 30 17 -10 35 -18 41 -18 6 0 30 -10 54 -21 40 -20 74
-21 74 -1 0 12 -45 44 -125 87 -38 21 -88 48 -110 60 -48 27 -213 109 -275
137 -25 11 -62 29 -82 39 -20 11 -44 19 -52 19 -9 0 -35 8 -58 19 -50 22 -165
51 -202 51 -13 0 -37 -10 -51 -23z"/>
<path d="M5196 12673 c-44 -32 -53 -35 -96 -29 -37 5 -52 2 -71 -12 -33 -25
-128 -72 -145 -72 -7 0 -28 16 -45 35 -31 34 -62 45 -74 26 -8 -14 -111 -42
-128 -35 -17 6 -87 -29 -162 -81 -27 -19 -72 -49 -98 -67 -26 -18 -63 -44 -81
-58 -19 -14 -44 -32 -56 -40 -92 -62 -337 -263 -504 -412 -244 -217 -251 -225
-238 -241 15 -17 172 -87 197 -87 9 0 33 -9 53 -19 134 -68 206 -101 226 -101
15 0 28 12 41 37 44 82 151 200 257 283 74 59 223 160 234 160 3 0 17 8 32 19
27 18 133 87 163 106 33 20 75 50 127 90 45 34 53 45 51 70 -4 56 1 63 54 95
28 17 72 44 97 60 25 16 54 34 65 40 101 54 100 54 98 103 -3 44 0 48 42 84
29 24 45 45 45 60 0 33 -26 28 -84 -14z"/>
<path d="M5244 11789 c-3 -6 -25 -19 -48 -29 -22 -10 -59 -35 -81 -56 -40 -38
-134 -154 -167 -204 -9 -14 -43 -56 -76 -94 -59 -68 -59 -68 -59 -133 0 -76 8
-84 114 -113 125 -34 198 -56 220 -68 12 -7 29 -12 38 -12 9 0 31 -7 48 -15
30 -13 51 -21 160 -60 23 -9 58 -23 77 -32 19 -8 55 -25 80 -36 25 -10 62 -28
82 -38 20 -11 43 -19 51 -19 8 0 20 -7 27 -15 14 -17 95 -55 117 -55 7 0 -12
27 -43 59 -31 33 -65 79 -76 103 -22 49 -37 164 -39 288 -1 131 -10 174 -36
178 -16 2 -26 -5 -38 -32 -19 -40 -93 -112 -130 -126 -28 -11 -45 -6 -95 27
-59 38 -82 65 -77 93 3 14 21 70 41 124 42 115 43 129 16 156 -11 11 -28 38
-36 60 -20 49 -55 73 -70 49z"/>
<path d="M10626 9388 c-15 -18 -34 -41 -42 -51 -13 -16 -35 -17 -256 -16
l-242 2 -24 -28 c-27 -31 -26 -46 5 -257 15 -106 15 -107 -7 -142 l-21 -36 31
-39 c20 -25 34 -54 37 -82 8 -59 17 -75 61 -103 20 -13 48 -35 62 -49 39 -39
71 -43 132 -14 29 13 73 27 98 31 99 15 177 46 212 84 38 42 73 99 93 151 7
20 25 68 40 106 14 39 30 81 34 95 5 14 25 54 46 89 l38 64 -12 68 c-7 37 -10
77 -7 87 10 30 -12 39 -109 51 -50 6 -102 14 -116 17 -21 5 -31 -1 -53 -28z"/>
<path d="M44234 11406 c-5 -14 9 -146 45 -421 11 -77 26 -198 35 -270 9 -71
20 -155 26 -185 6 -30 15 -93 19 -140 9 -89 31 -257 56 -425 9 -55 22 -156 30
-223 8 -72 20 -134 29 -147 l16 -24 323 -1 c252 0 326 2 334 12 12 15 38 167
54 313 6 55 14 118 19 140 4 22 11 69 15 105 3 36 15 129 26 208 10 78 28 206
38 285 11 78 23 171 26 207 4 36 11 83 15 105 5 22 14 85 19 140 6 55 19 146
28 202 13 83 14 105 3 118 -11 13 -81 15 -582 15 -477 0 -569 -2 -574 -14z"/>
<path d="M17627 11113 c-4 -3 -7 -1094 -7 -2424 l0 -2419 23 -12 c17 -10 209
-12 947 -8 l925 5 5 1822 c3 1002 8 1824 11 1828 8 7 1777 8 1790 0 5 -4 9
-694 9 -1819 0 -1528 2 -1815 14 -1825 10 -8 260 -11 942 -11 860 0 930 1 942
17 9 13 12 394 12 1824 0 1141 4 1810 10 1814 12 7 1768 7 1781 0 5 -4 9 -709
9 -1818 0 -997 4 -1818 8 -1824 6 -10 211 -13 937 -13 868 -1 931 1 942 17 16
21 19 3526 3 3718 -12 143 -45 264 -107 390 -44 91 -52 105 -88 160 -71 110
-227 268 -336 339 -41 27 -85 56 -99 65 -78 52 -219 107 -400 158 -62 17 -238
18 -4166 21 -2255 1 -4104 -1 -4107 -5z"/>
<path d="M28945 11110 c-22 -4 -69 -15 -105 -23 -225 -51 -461 -181 -627 -344
-59 -58 -173 -196 -173 -209 0 -4 -6 -15 -14 -23 -19 -22 -93 -163 -112 -214
-9 -23 -30 -87 -47 -142 l-31 -100 -4 -1305 c-2 -841 1 -1335 7 -1388 11 -86
28 -157 63 -252 112 -308 364 -585 658 -722 132 -61 148 -68 162 -68 9 0 32
-7 53 -16 20 -8 91 -24 156 -35 115 -18 200 -19 3190 -19 1689 0 3075 2 3080
5 5 4 9 249 9 599 0 488 -2 596 -14 605 -10 8 -729 11 -2730 11 -1494 0 -2721
2 -2727 5 -5 4 -9 131 -9 314 0 247 3 311 14 320 9 8 694 12 2547 13 l2534 3
3 549 c1 397 -1 553 -9 562 -10 12 -418 14 -2544 14 -2300 0 -2533 1 -2539 16
-10 26 -7 632 3 639 6 3 1233 5 2729 5 2293 0 2721 2 2731 14 8 10 10 173 9
602 l-3 589 -3110 1 c-1710 1 -3128 -2 -3150 -6z"/>
<path d="M36112 11108 c-18 -18 -17 -4817 1 -4841 11 -16 74 -18 942 -17 627
0 933 4 940 11 7 7 11 589 12 1821 2 997 6 1815 11 1820 9 9 3558 12 3573 2 5
-3 9 -731 9 -1813 0 -1430 3 -1811 13 -1824 11 -16 82 -17 937 -17 864 -1 926
1 937 17 20 26 18 3612 -2 3773 -19 158 -74 312 -160 449 -94 149 -228 293
-353 378 -165 114 -280 165 -512 230 -62 17 -206 18 -3200 21 -2442 2 -3138 0
-3148 -10z"/>
<path d="M47255 11110 c-105 -19 -194 -41 -221 -55 -16 -8 -35 -15 -43 -15
-14 0 -199 -90 -242 -118 -106 -69 -156 -109 -239 -192 -52 -52 -117 -129
-144 -170 -27 -41 -56 -86 -65 -100 -69 -104 -126 -272 -152 -440 -27 -180
-27 -633 0 -805 51 -320 206 -590 456 -794 93 -75 185 -135 265 -171 14 -7 38
-18 53 -26 36 -18 151 -56 242 -80 67 -18 162 -19 2258 -24 1930 -4 2189 -7
2197 -20 6 -9 10 -142 10 -311 0 -240 -3 -299 -14 -308 -10 -9 -704 -11 -2732
-11 -2513 0 -2719 -1 -2736 -17 -17 -15 -18 -47 -18 -593 0 -445 3 -580 13
-593 11 -16 204 -17 3081 -17 2711 0 3081 2 3170 15 264 41 501 152 703 331
66 59 201 220 237 285 86 151 126 251 162 404 17 71 19 122 19 470 0 344 -2
399 -19 470 -20 90 -59 209 -80 252 -8 15 -18 35 -21 43 -3 8 -17 33 -30 55
-13 22 -32 54 -41 70 -25 46 -122 164 -184 224 -57 55 -183 154 -233 181 -63
34 -214 108 -247 119 -123 44 -188 60 -290 71 -60 6 -878 10 -2211 10 -1921 0
-2117 1 -2123 16 -10 26 -7 632 3 639 5 3 1236 5 2734 5 2296 0 2726 2 2736
14 8 10 10 173 9 602 l-3 589 -3110 1 c-1710 1 -3128 -2 -3150 -6z"/>
<path d="M14390 8824 c-113 -116 -467 -442 -635 -585 -60 -51 -112 -97 -115
-100 -3 -4 -48 -42 -101 -85 -210 -173 -259 -216 -259 -229 0 -8 20 -51 44
-97 33 -64 49 -84 70 -89 15 -4 38 -18 50 -31 52 -53 150 -260 162 -341 4 -23
21 -69 38 -102 42 -79 55 -125 65 -235 5 -55 14 -97 23 -108 21 -24 62 -116
86 -192 42 -136 55 -222 58 -385 2 -109 6 -161 14 -163 18 -6 404 387 522 533
116 144 172 300 139 388 -13 33 -116 143 -141 150 -11 3 -30 -3 -42 -12 -13
-9 -43 -23 -67 -31 -64 -21 -87 -4 -118 85 -38 111 -44 127 -64 180 -66 167
-99 305 -91 375 4 29 45 75 85 96 32 17 58 7 94 -35 29 -34 101 -181 120 -246
10 -35 50 -47 65 -21 9 17 45 21 64 8 6 -4 26 -33 43 -64 39 -69 40 -69 122
-102 66 -26 104 -32 112 -18 7 10 -19 349 -33 437 -6 39 -17 117 -25 175 -27
195 -77 448 -121 615 -14 55 -30 118 -34 141 -5 22 -13 51 -19 65 -5 13 -12
36 -15 52 -9 41 -35 34 -96 -29z"/>
<path d="M1850 8773 c1 -59 32 -276 70 -478 36 -197 40 -219 40 -265 0 -25 6
-65 14 -90 7 -25 17 -74 21 -110 13 -122 88 -438 187 -790 52 -185 62 -218 79
-268 11 -30 19 -62 19 -72 0 -27 72 -113 122 -146 24 -16 66 -40 93 -53 28
-13 67 -32 87 -42 20 -11 43 -19 51 -19 24 0 183 -85 234 -125 26 -21 68 -63
93 -94 77 -94 261 -274 345 -336 44 -33 99 -76 122 -97 47 -42 55 -45 72 -24
10 11 10 20 0 38 -11 21 -18 53 -53 271 -18 107 -25 113 -148 121 -87 5 -108
10 -147 34 -72 44 -75 57 -51 224 22 149 34 224 46 271 6 26 4 28 -17 25 -13
-1 -29 -14 -36 -28 -6 -14 -24 -50 -38 -80 -33 -67 -57 -94 -114 -131 -55 -36
-90 -36 -161 -3 -54 24 -180 141 -180 166 0 6 -6 19 -14 27 -34 38 -73 181
-82 302 -8 100 10 266 37 354 10 33 19 67 19 75 0 8 9 33 20 55 11 22 19 46
20 54 0 27 134 283 153 293 26 13 115 4 177 -18 71 -26 106 -4 58 36 -13 11
-72 58 -133 106 -60 48 -131 106 -156 128 -25 23 -72 64 -105 92 -180 154
-224 193 -274 239 -30 29 -86 80 -125 115 -38 35 -125 116 -191 181 -67 66
-129 119 -138 119 -13 0 -16 -11 -16 -57z"/>
<path d="M32276 5050 c-44 -10 -89 -23 -100 -28 -111 -52 -147 -74 -195 -123
-155 -154 -184 -405 -69 -585 45 -70 132 -141 228 -184 14 -7 42 -20 62 -31
20 -10 44 -19 53 -19 8 0 32 -9 52 -20 21 -11 46 -20 55 -20 10 0 35 -9 55
-20 21 -11 43 -20 49 -20 21 0 104 -51 124 -77 25 -32 26 -74 1 -104 -16 -21
-28 -24 -80 -24 -56 0 -63 3 -86 30 -13 17 -24 40 -25 52 0 49 -25 53 -291 53
-277 0 -277 0 -264 -67 39 -213 170 -359 388 -434 145 -49 431 -52 563 -5 99
35 158 71 215 128 61 61 88 103 120 188 20 54 24 82 24 170 -1 98 -3 110 -33
172 -51 103 -156 195 -292 252 -36 16 -83 37 -106 47 -23 10 -46 19 -52 19 -6
0 -33 10 -59 21 -182 82 -213 106 -213 168 0 44 35 84 74 84 36 0 83 -38 96
-77 6 -19 17 -40 25 -46 15 -12 505 -18 524 -5 14 8 14 66 1 122 -16 67 -59
150 -106 201 -41 47 -155 132 -175 132 -5 0 -23 7 -39 15 -100 52 -371 69
-524 35z"/>
<path d="M34532 5049 c-173 -39 -317 -139 -379 -264 -61 -121 -63 -315 -5
-430 56 -113 201 -218 392 -285 126 -44 117 -41 222 -90 99 -46 132 -104 89
-159 -12 -16 -31 -25 -62 -28 -67 -7 -96 9 -124 68 -13 29 -30 56 -37 60 -7 5
-121 9 -254 9 -289 0 -281 3 -264 -91 39 -202 166 -335 400 -416 70 -25 87
-26 270 -27 190 -1 197 0 275 28 147 52 251 140 310 261 67 137 68 308 2 423
-28 51 -125 147 -177 177 -25 14 -37 20 -115 55 -22 10 -61 27 -86 39 -25 12
-51 21 -57 21 -6 0 -33 10 -59 21 -159 71 -197 97 -213 145 -11 31 -9 38 15
69 20 27 33 35 58 35 40 0 90 -45 107 -95 7 -21 18 -35 28 -35 9 0 127 -1 262
-1 304 0 292 -8 238 161 -75 235 -314 372 -642 369 -68 -1 -143 -9 -194 -20z"/>
<path d="M52611 5050 c-47 -10 -98 -25 -115 -33 -17 -8 -42 -20 -56 -26 -75
-35 -165 -117 -205 -189 -73 -130 -72 -358 1 -474 37 -59 123 -142 170 -165
21 -11 48 -24 59 -30 39 -20 90 -43 130 -57 22 -7 56 -19 75 -26 155 -55 232
-96 259 -138 20 -30 21 -38 10 -63 -6 -17 -21 -36 -33 -44 -23 -17 -83 -20
-118 -6 -21 8 -68 83 -68 109 0 19 -33 22 -274 22 -185 0 -246 -3 -260 -13
-18 -13 -18 -16 2 -94 40 -159 117 -261 254 -338 44 -25 84 -45 89 -45 5 0 38
-9 72 -21 121 -41 432 -37 534 7 167 73 241 134 297 249 46 94 60 167 53 273
-8 107 -40 174 -123 256 -58 58 -201 142 -274 162 -14 4 -34 13 -45 20 -11 8
-29 14 -40 14 -11 0 -33 9 -50 20 -16 11 -36 20 -44 20 -29 0 -122 54 -151 87
-17 19 -30 45 -30 60 0 34 46 83 78 83 37 0 82 -38 103 -86 10 -24 22 -44 26
-44 4 0 122 -1 262 -1 266 -1 270 0 271 44 0 30 -37 151 -59 195 -35 69 -111
150 -171 183 -19 11 -42 23 -50 28 -128 74 -391 101 -579 61z"/>
<path d="M38859 5045 c-53 -7 -111 -20 -127 -29 -17 -9 -39 -16 -49 -16 -10 0
-29 -9 -43 -20 -14 -11 -29 -20 -34 -20 -10 0 -72 -40 -116 -75 -180 -143
-280 -379 -280 -660 0 -354 149 -616 430 -757 159 -80 462 -100 643 -42 130
42 270 128 336 207 14 16 29 34 35 41 71 77 167 305 149 352 -4 11 -53 14
-263 14 l-258 0 -27 -32 c-14 -18 -34 -43 -43 -55 -9 -13 -37 -35 -62 -50 -41
-26 -54 -28 -142 -28 -92 0 -98 1 -140 31 -89 65 -138 176 -138 315 0 189 79
318 217 354 53 14 64 14 128 -2 65 -16 75 -23 142 -91 l72 -73 252 0 c192 0
254 3 260 12 24 40 -61 245 -145 351 -124 155 -284 243 -496 273 -124 17 -173
17 -301 0z"/>
<path d="M17714 5026 c-5 -12 8 -70 61 -291 8 -33 21 -89 29 -125 8 -36 24
-108 36 -160 12 -52 30 -131 40 -175 10 -44 28 -123 40 -175 12 -52 30 -131
40 -175 10 -44 28 -123 40 -175 12 -52 30 -131 40 -175 26 -114 36 -151 44
-164 10 -16 622 -16 632 0 9 15 20 63 44 184 37 185 58 289 79 390 12 55 26
134 32 175 6 41 15 86 21 99 17 46 39 2 59 -121 10 -62 25 -140 33 -173 8 -33
24 -109 36 -170 12 -60 30 -148 40 -195 10 -47 21 -105 25 -130 4 -25 12 -51
17 -57 15 -19 621 -19 636 0 6 6 13 30 17 52 4 22 15 74 25 115 18 72 30 123
51 220 5 25 18 81 29 125 10 44 24 105 30 135 7 30 21 91 31 135 19 80 39 164
80 345 34 150 57 253 80 348 11 48 21 101 22 117 l2 30 -264 3 c-146 1 -268
-1 -272 -5 -8 -9 -44 -212 -54 -308 -3 -33 -10 -82 -15 -110 -6 -27 -17 -102
-25 -165 -9 -63 -20 -137 -25 -165 -5 -27 -9 -76 -9 -107 -1 -61 -14 -108 -30
-108 -12 0 -36 82 -46 150 -3 25 -15 83 -25 130 -20 89 -49 225 -80 370 -45
214 -62 286 -69 300 -7 13 -50 15 -279 18 l-271 2 -14 -27 c-8 -16 -18 -48
-22 -73 -4 -25 -16 -85 -27 -135 -20 -95 -43 -198 -76 -355 -12 -52 -28 -127
-37 -166 -8 -39 -18 -95 -22 -125 -3 -30 -10 -62 -15 -73 -22 -41 -37 9 -63
204 -55 415 -65 481 -69 488 -2 4 -9 59 -16 122 -7 63 -17 121 -22 128 -16 19
-537 17 -544 -2z"/>
<path d="M21116 5024 c-3 -8 -6 -372 -6 -809 0 -657 2 -794 14 -804 9 -8 160
-10 542 -9 l529 3 0 200 0 200 -280 5 -280 5 -5 95 c-3 52 -2 103 2 112 8 16
32 18 251 20 l242 3 3 184 c1 113 -1 188 -7 194 -7 7 -98 10 -238 8 -132 -1
-234 2 -242 8 -11 7 -14 29 -12 93 1 46 6 87 11 92 5 5 127 8 272 7 145 -1
269 2 276 7 9 6 12 54 10 203 l-3 194 -536 3 c-483 2 -537 1 -543 -14z"/>
<path d="M23215 5031 c-3 -6 -5 -371 -5 -812 0 -633 3 -804 12 -811 15 -9 958
-11 982 -2 14 5 16 32 16 189 0 130 -3 186 -12 191 -6 4 -109 6 -229 5 -144
-2 -225 1 -238 9 -21 11 -21 16 -23 623 l-3 612 -247 3 c-150 1 -249 -1 -253
-7z"/>
<path d="M25196 5025 c-3 -8 -6 -370 -6 -804 0 -606 3 -792 13 -805 11 -15 54
-16 502 -14 l490 3 3 184 c1 113 -1 188 -7 194 -7 7 -96 9 -234 8 -183 -2
-225 0 -235 12 -9 10 -13 174 -14 623 l-3 609 -251 3 c-219 2 -253 0 -258 -13z"/>
<path d="M27182 5028 c-19 -19 -17 -1601 2 -1617 9 -8 86 -11 257 -9 l244 3 1
390 c1 340 3 390 17 393 13 3 57 -45 57 -63 0 -3 44 -72 97 -153 54 -81 102
-154 108 -163 5 -9 23 -36 40 -60 16 -24 34 -51 40 -61 5 -9 25 -37 43 -63 17
-25 32 -50 32 -54 0 -4 9 -16 20 -26 11 -10 20 -22 20 -27 0 -10 34 -61 64
-95 19 -23 23 -23 260 -23 133 0 247 4 254 8 10 7 12 177 10 818 l-3 809 -252
3 -253 2 -2 -396 c-2 -297 -6 -398 -15 -401 -6 -2 -24 15 -39 39 -15 24 -53
81 -83 128 -31 46 -58 89 -61 95 -5 10 -64 101 -182 278 -32 49 -58 92 -58 96
0 4 -9 16 -20 26 -11 10 -20 23 -21 29 0 6 -15 31 -33 56 l-33 45 -249 3
c-186 2 -253 -1 -262 -10z"/>
<path d="M29796 5024 c-3 -9 -6 -372 -6 -809 0 -657 2 -794 14 -804 9 -8 160
-10 542 -9 l529 3 5 185 c3 102 2 193 -3 202 -7 16 -33 18 -285 20 l-277 3 0
110 0 110 240 3 c132 1 243 6 248 11 14 14 13 359 -1 373 -8 8 -78 11 -237 9
-164 -2 -230 1 -241 9 -18 16 -20 175 -3 186 7 4 129 6 273 5 144 -1 266 2
273 6 15 11 16 14 14 221 l-1 182 -539 0 c-482 0 -539 -2 -545 -16z"/>
<path d="M40815 5031 c-3 -6 -5 -370 -5 -811 0 -441 2 -805 5 -811 9 -13 1072
-12 1080 1 4 6 7 94 7 197 1 147 -2 187 -13 194 -8 5 -134 9 -281 9 -314 0
-290 -11 -286 133 l3 92 247 5 c135 3 249 8 253 12 12 12 9 358 -3 370 -8 8
-86 11 -242 9 -168 -2 -235 1 -246 10 -16 13 -20 154 -5 178 8 12 55 14 278
12 235 -2 271 0 282 13 10 12 13 62 13 195 0 98 -3 184 -6 190 -9 14 -1072 16
-1081 2z"/>
<path d="M42915 5028 c-3 -7 -4 -375 -3 -818 l3 -805 240 -2 c132 -2 246 1
254 6 11 7 13 76 12 395 -2 326 0 386 12 386 15 0 47 -31 47 -45 0 -4 35 -60
78 -124 82 -123 81 -122 127 -196 17 -26 39 -60 51 -74 11 -14 23 -33 27 -41
3 -8 50 -80 105 -160 l98 -145 254 0 255 0 0 815 0 815 -244 3 c-167 2 -248
-1 -257 -9 -11 -9 -13 -87 -12 -397 0 -328 -2 -387 -14 -390 -8 -1 -22 12 -31
30 -10 18 -26 47 -37 63 -11 17 -26 42 -35 57 -8 16 -40 64 -70 108 -30 45
-55 84 -55 89 0 4 -9 16 -20 26 -11 10 -20 22 -20 26 0 5 -17 34 -39 66 -73
110 -163 248 -196 301 l-20 32 -253 0 c-193 0 -254 -3 -257 -12z"/>
<path d="M45436 5024 c-11 -30 -7 -372 5 -380 6 -4 97 -6 202 -5 127 1 194 -3
204 -10 11 -9 13 -120 13 -608 0 -451 3 -600 12 -609 9 -9 78 -12 250 -12 224
0 238 1 248 19 6 13 10 223 9 606 0 442 2 590 11 600 10 12 48 15 207 14 112
-1 198 2 204 8 6 6 8 88 7 199 l-3 189 -681 3 c-615 2 -682 1 -688 -14z"/>
<path d="M47767 5033 c-4 -3 -7 -367 -7 -808 0 -610 3 -804 12 -813 16 -16
1063 -17 1073 -1 10 16 8 380 -2 390 -5 5 -132 10 -283 11 l-275 3 0 110 0
110 239 3 c156 1 244 6 253 13 10 9 13 53 13 184 0 144 -3 175 -16 185 -11 10
-68 13 -237 11 -122 -1 -230 1 -239 4 -15 6 -18 21 -18 95 0 54 4 92 11 96 6
3 129 6 272 5 144 -1 268 3 276 8 11 7 14 47 13 194 0 103 -3 191 -7 197 -7
11 -1067 15 -1078 3z"/>
<path d="M49867 5034 c-4 -4 -7 -368 -7 -809 0 -610 3 -804 12 -813 15 -15
484 -17 493 -2 3 6 6 130 5 276 0 249 1 265 17 262 11 -2 37 -41 68 -103 88
-174 217 -420 227 -433 8 -9 73 -12 282 -10 241 3 271 5 274 19 2 9 -3 23 -10
30 -12 12 -93 149 -112 189 -4 8 -18 33 -31 55 -14 22 -32 54 -40 70 -8 17
-26 48 -40 70 -14 22 -30 51 -37 65 -7 14 -23 40 -35 59 -36 53 -31 67 40 102
34 18 77 43 96 58 36 27 131 147 131 165 0 6 7 24 15 40 27 52 39 167 27 261
-27 210 -157 353 -392 432 -50 16 -99 18 -515 21 -254 2 -464 0 -468 -4z m820
-466 c34 -34 36 -41 36 -97 0 -51 -4 -66 -24 -87 -43 -47 -70 -54 -193 -54
-104 0 -116 2 -126 19 -5 11 -10 69 -10 130 0 94 3 112 18 121 10 6 65 9 139
8 l123 -3 37 -37z"/>
<path d="M7606 4341 c-3 -4 -32 -21 -63 -36 -32 -15 -66 -31 -75 -36 -31 -16
-52 -25 -98 -46 -25 -12 -85 -40 -135 -63 -49 -23 -110 -51 -135 -62 -25 -11
-62 -29 -82 -39 -20 -11 -43 -19 -51 -19 -8 0 -22 -8 -31 -19 -14 -15 -16 -31
-10 -99 6 -69 3 -92 -19 -168 -86 -294 -118 -524 -118 -854 0 -271 16 -426 71
-680 10 -47 28 -132 40 -190 12 -58 28 -135 36 -171 8 -36 21 -106 29 -155 7
-49 19 -118 26 -154 8 -41 13 -161 13 -330 1 -250 0 -268 -21 -328 -14 -38
-23 -85 -23 -123 0 -56 -9 -88 -56 -197 -8 -19 -36 -57 -63 -85 -66 -71 -75
-91 -57 -119 8 -13 17 -33 21 -45 7 -26 -7 -29 -59 -14 -17 5 -76 19 -131 31
-214 48 -418 105 -625 176 -58 19 -118 39 -135 43 -16 4 -44 15 -62 24 -18 10
-39 17 -47 17 -9 0 -35 9 -58 19 -24 10 -68 29 -98 41 -30 12 -73 31 -96 41
-23 11 -47 19 -53 19 -7 0 -29 9 -49 19 -104 53 -121 61 -139 61 -22 0 -43 18
-43 37 0 8 16 23 35 35 20 11 42 33 51 49 8 16 39 57 70 91 55 62 105 146 118
200 3 15 22 55 42 89 50 85 72 152 79 245 4 43 16 116 26 162 22 88 87 294
112 352 8 19 27 64 42 100 70 171 170 372 234 470 66 101 84 135 115 215 39
102 97 324 111 426 6 48 31 119 62 179 27 51 213 332 235 353 19 19 25 57 8
57 -10 0 -114 -46 -182 -81 -20 -11 -44 -19 -53 -19 -9 0 -33 -9 -53 -19 -20
-11 -59 -28 -87 -39 -91 -36 -159 -64 -203 -83 -23 -10 -48 -19 -55 -19 -7 0
-29 -9 -50 -20 -20 -11 -44 -20 -52 -20 -8 0 -32 -9 -52 -20 -21 -11 -44 -20
-51 -20 -28 0 -112 -52 -126 -78 -22 -44 -63 -170 -85 -267 -54 -241 -64 -293
-95 -490 -8 -49 -21 -128 -29 -175 -8 -47 -24 -152 -36 -235 -12 -82 -30 -212
-41 -287 -11 -76 -20 -151 -20 -168 0 -52 -46 -164 -98 -241 -27 -41 -62 -100
-77 -132 -15 -31 -47 -76 -72 -100 -51 -48 -140 -106 -163 -107 -8 0 -32 -9
-53 -20 -20 -11 -45 -20 -56 -20 -10 0 -35 -18 -55 -40 -41 -46 -47 -47 -84
-22 -15 11 -45 30 -67 44 -69 44 -358 237 -405 271 -170 123 -340 256 -445
348 -322 282 -610 573 -817 828 -23 28 -51 54 -63 57 -11 2 -54 1 -95 -3 -86
-9 -96 -21 -53 -68 16 -17 59 -69 98 -115 70 -86 89 -107 205 -234 110 -122
369 -376 510 -502 118 -105 380 -320 464 -379 15 -11 43 -31 61 -45 50 -37
114 -83 140 -100 13 -8 57 -39 100 -68 42 -28 79 -52 83 -52 3 0 14 -7 24 -17
10 -9 26 -21 37 -27 10 -6 36 -21 57 -34 22 -12 53 -31 69 -42 17 -11 44 -26
60 -34 17 -8 34 -18 38 -23 10 -9 123 -73 182 -103 22 -11 48 -24 58 -30 95
-55 435 -217 565 -269 28 -12 76 -30 105 -42 28 -12 71 -30 95 -40 23 -10 49
-19 58 -19 8 0 29 -7 47 -17 18 -9 46 -20 62 -24 17 -4 77 -24 135 -43 170
-58 219 -73 453 -136 185 -50 582 -129 727 -145 30 -3 78 -10 105 -15 28 -5
120 -14 205 -21 85 -6 173 -17 195 -25 60 -21 974 -20 1048 1 29 8 115 19 192
25 157 12 302 30 480 61 176 30 447 89 554 120 35 11 71 19 80 19 9 0 44 9 79
20 34 11 90 29 125 40 34 11 69 20 77 20 8 1 33 9 55 20 22 11 47 19 55 20 8
0 37 8 65 19 27 10 66 24 85 31 84 29 117 42 147 55 17 8 36 15 42 15 6 0 28
9 48 20 21 11 44 20 51 20 7 0 30 8 50 19 34 17 63 30 175 80 42 19 207 96
240 112 34 18 62 32 77 41 8 4 33 17 55 28 22 11 72 38 110 60 39 22 84 47
100 56 17 8 48 26 70 39 22 13 56 34 75 45 19 11 49 29 65 40 17 11 42 26 57
35 16 8 65 41 110 72 46 31 99 67 118 80 19 12 40 26 45 30 6 5 21 16 35 25
71 49 339 252 375 285 11 10 48 41 82 69 180 149 586 543 728 705 219 251 266
312 252 325 -6 7 -48 15 -93 19 l-80 7 -68 -79 c-37 -43 -91 -105 -119 -138
-78 -91 -476 -489 -581 -582 -52 -45 -145 -124 -207 -174 -62 -50 -117 -95
-123 -100 -49 -40 -147 -116 -176 -135 -19 -13 -57 -40 -85 -59 -61 -44 -122
-86 -144 -100 -22 -14 -156 -101 -209 -136 -24 -16 -47 -29 -51 -29 -4 0 -16
-9 -26 -20 -25 -28 -48 -25 -74 11 -12 16 -34 35 -49 41 -183 72 -220 91 -278
145 -50 47 -94 109 -94 132 0 7 -8 24 -18 39 -85 125 -102 152 -102 161 0 6
-9 30 -19 53 -12 26 -27 109 -40 213 -42 333 -118 815 -175 1100 -34 170 -75
315 -112 390 -25 51 -46 66 -154 104 -19 7 -57 22 -85 33 -27 11 -68 26 -90
34 -22 8 -52 21 -67 29 -14 8 -34 15 -45 15 -10 0 -31 9 -48 20 -16 11 -38 20
-48 20 -10 0 -35 9 -55 19 -20 11 -59 28 -87 39 -123 48 -164 66 -216 93 -31
16 -62 29 -68 29 -16 0 -14 -45 4 -60 18 -15 216 -313 239 -360 22 -44 53
-142 61 -195 10 -62 44 -202 67 -280 38 -131 78 -220 138 -309 8 -13 27 -40
41 -62 33 -51 171 -336 217 -449 101 -249 149 -417 172 -605 12 -98 38 -171
89 -258 16 -27 32 -60 35 -73 16 -56 62 -133 115 -193 31 -35 66 -81 77 -101
10 -20 29 -38 42 -42 32 -8 46 -38 26 -57 -8 -9 -24 -16 -35 -16 -11 0 -37 -8
-57 -19 -20 -10 -59 -29 -87 -41 -27 -12 -67 -31 -87 -41 -20 -11 -45 -19 -55
-19 -10 0 -31 -9 -48 -20 -16 -11 -39 -20 -50 -20 -11 0 -29 -6 -40 -14 -11
-7 -36 -19 -55 -24 -61 -19 -154 -53 -187 -68 -17 -7 -37 -14 -44 -14 -8 0
-36 -8 -64 -19 -98 -37 -356 -108 -575 -159 -211 -49 -200 -48 -200 -31 0 6 7
26 16 45 21 43 7 83 -42 120 -63 49 -119 180 -128 300 -2 39 -12 89 -21 110
-11 26 -20 95 -27 204 -15 228 5 436 73 770 37 179 59 285 78 380 45 218 53
274 63 463 22 377 -17 728 -122 1087 -19 65 -20 82 -11 136 6 34 8 69 5 78 -6
16 -56 42 -266 135 -59 26 -191 88 -329 155 -64 31 -121 56 -127 56 -15 0 -22
-28 -13 -53 4 -12 11 -47 15 -77 6 -56 31 -181 68 -345 14 -60 23 -151 29
-275 13 -313 38 -731 49 -815 5 -44 15 -145 21 -225 5 -80 14 -163 19 -185 5
-22 13 -112 19 -200 28 -434 32 -575 27 -820 -10 -388 -7 -585 11 -730 9 -71
16 -163 14 -203 -2 -90 16 -125 77 -152 31 -14 43 -25 40 -37 -3 -16 -29 -20
-223 -36 -329 -26 -864 -33 -1095 -13 -102 8 -235 18 -297 22 -61 4 -117 10
-124 15 -18 11 4 36 50 57 23 11 43 31 55 56 17 34 18 45 8 82 -9 34 -9 55 3
101 16 69 39 335 30 363 -3 10 -1 47 5 80 8 46 8 75 -1 118 -28 133 3 1140 41
1337 5 28 14 115 20 195 6 80 15 181 20 225 5 44 14 172 20 285 31 632 31 630
65 805 19 94 36 177 39 185 10 26 35 224 30 232 -7 11 -41 10 -48 -1z"/>
<path d="M6669 3692 c-8 -10 -30 -44 -49 -77 -19 -33 -58 -95 -87 -138 -74
-109 -88 -139 -113 -247 -12 -52 -30 -135 -42 -185 -18 -82 -57 -207 -91 -295
-25 -65 -52 -115 -105 -193 -28 -43 -59 -92 -67 -110 -8 -18 -19 -39 -25 -47
-15 -22 -126 -261 -135 -290 -4 -14 -11 -29 -15 -35 -4 -5 -13 -26 -18 -45 -6
-19 -23 -66 -37 -105 -53 -139 -95 -292 -95 -348 0 -54 15 -77 50 -77 22 0 36
-9 57 -36 54 -71 228 -290 262 -329 71 -83 323 -325 377 -362 121 -82 175
-113 199 -113 22 0 37 44 25 75 -5 14 -13 25 -17 25 -5 0 -24 15 -44 33 -19
17 -64 57 -99 87 -35 30 -72 62 -81 70 -8 8 -44 40 -79 70 -124 106 -180 163
-180 181 0 10 11 26 25 37 14 11 25 25 25 30 0 24 -44 84 -72 98 -49 26 -61
85 -29 145 11 20 17 46 15 57 -6 22 15 69 43 94 10 10 39 18 68 20 43 3 51 7
67 34 18 30 18 34 3 72 -12 29 -25 44 -46 51 -32 11 -49 44 -49 92 0 64 35 85
95 57 19 -9 30 -8 48 1 47 25 171 244 191 337 4 17 -3 105 -14 195 -35 272
-27 629 20 909 15 93 40 202 50 221 25 46 1 78 -31 41z"/>
<path d="M5314 3375 c-10 -8 -27 -15 -37 -15 -10 0 -34 -8 -55 -19 -20 -10
-53 -21 -71 -25 -43 -8 -81 -32 -81 -51 0 -8 11 -24 24 -37 33 -32 91 -118
127 -188 31 -62 55 -76 63 -37 24 125 42 206 63 279 13 48 22 92 18 98 -9 14
-28 12 -51 -5z"/>
<path d="M11288 3218 c-10 -17 -12 -76 -10 -229 2 -177 0 -215 -16 -270 -21
-71 -48 -195 -87 -399 -14 -74 -31 -149 -37 -166 -7 -20 -8 -40 -1 -59 14 -43
34 -51 76 -32 19 9 45 17 58 17 31 0 156 38 201 61 20 10 42 19 48 19 21 0
184 126 285 220 119 110 525 522 526 533 3 29 -3 36 -38 42 -54 8 -194 48
-513 145 -41 12 -99 31 -128 41 -30 11 -61 19 -70 19 -10 1 -35 9 -57 20 -22
11 -49 20 -60 20 -11 0 -40 9 -64 20 -58 27 -97 26 -113 -2z"/>
</g>
</svg>
